<?xml version="1.0" encoding="UTF-8"?>
<!DOCTYPE svg PUBLIC "-//W3C//DTD SVG 1.1//EN" "http://www.w3.org/Graphics/SVG/1.1/DTD/svg11.dtd">
<svg xmlns="http://www.w3.org/2000/svg" version="1.1" width="64px" height="64px" style="shape-rendering:geometricPrecision; text-rendering:geometricPrecision; image-rendering:optimizeQuality; fill-rule:evenodd; clip-rule:evenodd" xmlns:xlink="http://www.w3.org/1999/xlink">
<g><path style="opacity:0.935" fill="#fff" d="M 28.5,-0.5 C 30.5,-0.5 32.5,-0.5 34.5,-0.5C 35.0114,1.19474 35.6781,2.8614 36.5,4.5C 41.6708,6.32957 45.5041,9.6629 48,14.5C 49.3561,22.0952 49.8561,29.7618 49.5,37.5C 51.8333,37.5 54.1667,37.5 56.5,37.5C 56.5,41.1667 56.5,44.8333 56.5,48.5C 39.8333,48.5 23.1667,48.5 6.5,48.5C 6.5,44.8333 6.5,41.1667 6.5,37.5C 8.83333,37.5 11.1667,37.5 13.5,37.5C 13.1439,29.7618 13.6439,22.0952 15,14.5C 17.4543,9.67371 21.2876,6.34038 26.5,4.5C 27.3219,2.8614 27.9886,1.19474 28.5,-0.5 Z"/></g>
<g><path style="opacity:0.83" fill="#fff" d="M 36.5,63.5 C 33.1667,63.5 29.8333,63.5 26.5,63.5C 22.7016,60.9095 20.7016,57.2428 20.5,52.5C 27.8333,52.5 35.1667,52.5 42.5,52.5C 42.2984,57.2428 40.2984,60.9095 36.5,63.5 Z"/></g>
</svg>
